<?xml version="1.0" encoding="utf-8"?>
<!-- Generator: Adobe Illustrator 21.0.0, SVG Export Plug-In . SVG Version: 6.00 Build 0)  -->
<svg version="1.1" id="图层_1" xmlns="http://www.w3.org/2000/svg" xmlns:xlink="http://www.w3.org/1999/xlink" x="0px" y="0px"
	 viewBox="0 0 283.5 68" style="enable-background:new 0 0 283.5 68;" xml:space="preserve">
<style type="text/css">
	.st0{fill:#008490;}
	.st1{fill:#E60012;}
</style>
<g>
	<path class="st0" d="M153.8,52.4c0.7-0.2,1.8-0.3,2.9-0.3c1.5,0,2.5,0.3,3.1,0.9c0.5,0.5,0.8,1.2,0.5,2.1c-0.3,1.2-1.3,2.2-2.6,2.7
		l0,0.1c1.1,0.3,2.2,1.2,1.8,3c-0.2,1-0.8,1.8-1.6,2.4c-1,0.8-2.4,1.1-4.4,1.1c-1.1,0-1.9-0.1-2.4-0.1L153.8,52.4z M153,63.1
		c0.3,0.1,0.7,0.1,1.3,0.1c1.6,0,3.2-0.6,3.6-2.3c0.4-1.6-0.9-2.3-2.6-2.3H154L153,63.1z M154.3,57.4h1.4c1.6,0,2.8-0.9,3-2
		c0.3-1.4-0.6-2-2.2-2c-0.7,0-1.1,0.1-1.4,0.1L154.3,57.4z"/>
	<path class="st0" d="M162.9,60.3c-0.4,2.1,0.7,2.9,2.3,2.9c1.1,0,1.8-0.2,2.5-0.4l0,1.1c-0.6,0.2-1.6,0.5-3,0.5
		c-2.6,0-3.8-1.7-3.3-4.3c0.6-2.6,2.6-4.6,5.1-4.6c2.8,0,3,2.4,2.6,4c-0.1,0.3-0.1,0.6-0.2,0.7L162.9,60.3z M167.7,59.2
		c0.2-1,0.2-2.5-1.6-2.5c-1.6,0-2.6,1.4-2.9,2.5H167.7z"/>
	<path class="st0" d="M173.7,53.6l-0.5,2.1h2.2l-0.3,1.2H173l-1,4.6c-0.2,1.1-0.1,1.7,0.8,1.7c0.4,0,0.7,0,0.9-0.1l-0.2,1.2
		c-0.3,0.1-0.8,0.2-1.4,0.2c-0.7,0-1.3-0.2-1.5-0.7c-0.3-0.5-0.3-1.2-0.1-2.3l1-4.7h-1.3l0.3-1.2h1.3l0.3-1.6L173.7,53.6z"/>
	<path class="st0" d="M179.9,53.6l-0.5,2.1h2.2l-0.3,1.2h-2.2l-1,4.6c-0.2,1.1-0.1,1.7,0.8,1.7c0.4,0,0.7,0,0.9-0.1l-0.2,1.2
		c-0.3,0.1-0.8,0.2-1.4,0.2c-0.7,0-1.3-0.2-1.5-0.7c-0.3-0.5-0.3-1.2-0.1-2.3l1-4.7h-1.3l0.3-1.2h1.3l0.3-1.6L179.9,53.6z"/>
	<path class="st0" d="M183.5,60.3c-0.4,2.1,0.7,2.9,2.3,2.9c1.1,0,1.8-0.2,2.5-0.4l0,1.1c-0.6,0.2-1.6,0.5-3,0.5
		c-2.6,0-3.8-1.7-3.3-4.3c0.6-2.6,2.6-4.6,5.1-4.6c2.8,0,3,2.4,2.6,4c-0.1,0.3-0.1,0.6-0.2,0.7L183.5,60.3z M188.3,59.2
		c0.2-1,0.2-2.5-1.6-2.5c-1.6,0-2.6,1.4-2.9,2.5H188.3z"/>
	<path class="st0" d="M192.1,58.5c0.2-1,0.4-1.9,0.5-2.7h1.4l-0.3,1.7h0.1c0.6-1.2,1.8-1.9,2.8-1.9c0.2,0,0.3,0,0.4,0.1l-0.3,1.5
		c-0.2,0-0.3,0-0.5,0c-1.1,0-2.1,0.8-2.5,2c-0.1,0.2-0.2,0.5-0.2,0.7l-1,4.6h-1.6L192.1,58.5z"/>
	<path class="st0" d="M207.8,58.6h-4.6l-0.9,4.4h5.2l-0.3,1.3h-6.7l2.6-12.3h6.5l-0.3,1.3h-4.9l-0.8,3.9h4.6L207.8,58.6z"/>
	<path class="st0" d="M212.4,55.6l1.4,3.2l2.5-3.2h1.6l-3.5,4.5l1.8,4.3h-1.4l-1.3-3.1l-2.4,3.1h-1.6l3.4-4.4l-1.9-4.4H212.4z"/>
	<path class="st0" d="M219.8,58.5c0.2-1.1,0.4-2,0.5-2.8h1.4l-0.2,1.5h0c0.9-1.1,2-1.7,3.4-1.7c2.1,0,3.3,1.8,2.7,4.4
		c-0.7,3.1-2.9,4.6-4.9,4.6c-1.2,0-2-0.5-2.3-1.3h0l-1,4.7h-1.6L219.8,58.5z M220.9,60.8c0,0.2-0.1,0.4-0.1,0.6
		c0,1.1,0.8,1.8,1.9,1.8c1.6,0,2.9-1.3,3.3-3.3c0.4-1.7-0.2-3.2-1.8-3.2c-1.1,0-2.2,0.7-2.8,1.9c-0.1,0.2-0.2,0.4-0.2,0.6
		L220.9,60.8z"/>
	<path class="st0" d="M230.3,60.3c-0.4,2.1,0.7,2.9,2.3,2.9c1.1,0,1.8-0.2,2.5-0.4l0,1.1c-0.6,0.2-1.6,0.5-3,0.5
		c-2.6,0-3.8-1.7-3.3-4.3c0.6-2.6,2.6-4.6,5.1-4.6c2.8,0,3,2.4,2.6,4c-0.1,0.3-0.1,0.6-0.2,0.7L230.3,60.3z M235.1,59.2
		c0.2-1,0.1-2.5-1.6-2.5c-1.6,0-2.6,1.4-2.9,2.5H235.1z"/>
	<path class="st0" d="M238.9,58.5c0.2-1,0.4-1.9,0.5-2.7h1.4l-0.3,1.7h0.1c0.6-1.2,1.8-1.9,2.8-1.9c0.2,0,0.3,0,0.4,0.1l-0.3,1.5
		c-0.2,0-0.3,0-0.5,0c-1.1,0-2.1,0.8-2.5,2c-0.1,0.2-0.2,0.5-0.2,0.8l-1,4.6h-1.6L238.9,58.5z"/>
	<path class="st0" d="M243.8,64.4l1.9-8.7h1.6l-1.9,8.7H243.8z M246.8,54.1c-0.6,0-0.9-0.5-0.8-1c0.1-0.6,0.6-1,1.2-1
		c0.6,0,0.9,0.5,0.8,1C247.9,53.6,247.4,54.1,246.8,54.1L246.8,54.1z"/>
	<path class="st0" d="M249.9,60.3c-0.4,2.1,0.7,2.9,2.3,2.9c1.1,0,1.8-0.2,2.5-0.4l0,1.1c-0.6,0.2-1.6,0.5-3,0.5
		c-2.6,0-3.8-1.7-3.3-4.3c0.6-2.6,2.6-4.6,5.1-4.6c2.8,0,3,2.4,2.6,4c-0.1,0.3-0.1,0.6-0.2,0.7L249.9,60.3z M254.7,59.2
		c0.2-1,0.2-2.5-1.6-2.5c-1.6,0-2.6,1.4-2.9,2.5H254.7z"/>
	<path class="st0" d="M258.5,58.1c0.2-0.9,0.3-1.6,0.4-2.3h1.4l-0.2,1.4h0c0.6-0.8,1.8-1.6,3.2-1.6c1.2,0,2.9,0.7,2.2,3.7l-1.1,5.2
		h-1.6l1.1-5c0.3-1.4,0-2.6-1.4-2.6c-1,0-2,0.7-2.4,1.6c-0.1,0.2-0.2,0.5-0.3,0.7l-1.1,5.2h-1.6L258.5,58.1z"/>
	<path class="st0" d="M273.4,63.9c-0.4,0.2-1.4,0.5-2.6,0.5c-2.6,0-3.9-1.7-3.3-4.3c0.6-2.6,2.8-4.5,5.6-4.5c0.9,0,1.7,0.2,2.1,0.5
		l-0.6,1.2c-0.3-0.2-0.9-0.4-1.7-0.4c-2,0-3.4,1.5-3.7,3.2c-0.4,2,0.6,3.2,2.3,3.2c0.9,0,1.5-0.2,2-0.4L273.4,63.9z"/>
	<path class="st0" d="M277.1,60.3c-0.4,2.1,0.7,2.9,2.3,2.9c1.1,0,1.8-0.2,2.5-0.4l0,1.1c-0.6,0.2-1.6,0.5-3,0.5
		c-2.6,0-3.8-1.7-3.3-4.3c0.6-2.6,2.6-4.6,5.1-4.6c2.8,0,3,2.4,2.6,4c-0.1,0.3-0.1,0.6-0.2,0.7L277.1,60.3z M281.9,59.2
		c0.2-1,0.2-2.5-1.6-2.5c-1.6,0-2.6,1.4-2.9,2.5H281.9z"/>
	<path d="M157.3,22.7c-2.2-0.9-5.1-1.5-8.6-1.8c-1.2-0.1-2.4-0.1-3.7-0.1c-1.3,0-4.4,0-9.2,0l0,15.7h7.6c1.9,0,3.7-0.1,5.3-0.2
		c8.8-0.8,13.2-3.4,13.2-8.1C161.9,26,160.3,24,157.3,22.7z M153.5,32.8c-1.3,0.7-2.9,1.1-4.8,1.4c-1.1,0.2-2.3,0.2-3.6,0.3
		c-1.8,0-3,0-4.2,0V22.7c2-0.1,3,0,3.7-0.1c1.5,0,2.8,0,4,0.2c5.2,0.5,7.8,2.3,7.8,5.3C156.5,30.2,155.6,31.7,153.5,32.8z"/>
	<path class="st1" d="M134.4,15C127.7-0.7,94.7-3.2,71.2,3.4c24-5.3,56.2-3,58.5,11.3c2,12.7-13.2,27.3-40,35.5
		c-26.9,8.1-51.3,8-62.2-1.2c-4.4-3.6-5.7-8.2-5.1-12.7l0,0c0.4-3.1,1.8-6.2,3.8-8.9c2.5-3.4,5.9-6.4,9.7-8.4
		c-3.6,1.6-6.8,3.7-9.7,6.2c-1.9,1.7-3.6,3.6-5.1,5.5c-4.8,6.5-6.8,14-4.3,20.1c6.6,15.5,32.1,22.2,68,12.3
		C120.7,53.3,140.9,30.4,134.4,15z"/>
	<g>
		<polygon points="26.1,20.8 21,20.8 21,26.7 5.2,26.7 5.2,20.8 0,20.8 0,36.5 5.2,36.5 5.2,28.6 21,28.6 21,36.5 26.1,36.5 		"/>
	</g>
	<polygon points="114.9,20.8 109.8,20.8 109.8,32 91.4,20.8 88.8,20.8 88.8,36.5 94,36.5 94,25.3 112.3,36.5 114.9,36.5 	"/>
	<path d="M58.7,20.8h-2.6L41.8,36.5l5.8,0l2.8-3.4h7.1l7,0l2.8,3.4H73L58.7,20.8z M52,31.1l5.4-6.5l5.4,6.5L52,31.1z"/>
</g>
</svg>
